<svg width="402" height="230" viewBox="0 0 402 230" fill="none" xmlns="http://www.w3.org/2000/svg">
<g opacity="0.05">
<path d="M345.533 133.216H323.707C320.495 133.216 317.944 131.988 316.054 129.531C314.353 126.886 313.503 123.39 313.503 119.044C313.503 109.406 317.471 104.588 325.408 104.588H358.571C365.563 104.588 370.476 102.604 373.31 98.6353C376.145 94.6671 377.562 90.3209 377.562 85.5968V49.032C377.562 44.3079 376.145 39.9617 373.31 35.9934C370.476 32.0252 365.563 30.041 358.571 30.041H298.764V214.849C298.764 223.919 293.189 228.454 282.04 228.454C270.891 228.454 265.317 223.919 265.317 214.849V18.4197C265.317 11.617 267.018 7.08179 270.419 4.8142C274.009 2.54663 278.261 1.41284 283.174 1.41284H365.657C370.571 1.41284 375.673 2.45215 380.964 4.53076C386.255 6.60938 391.357 9.25489 396.27 12.4673H395.986C400.899 16.0576 404.679 20.7818 407.324 26.6397C409.97 32.3086 411.292 38.9224 411.292 46.481V87.8644C411.292 103.171 406.19 114.603 395.986 122.162C393.908 123.673 391.64 125.09 389.184 126.413C386.916 127.736 384.554 129.059 382.097 130.381L427.449 205.212C428.016 206.156 428.583 207.385 429.15 208.896C429.717 210.408 430 211.636 430 212.581C430 217.116 426.788 221.463 420.363 225.62V225.336C416.017 227.982 412.332 229.305 409.308 229.305C404.962 229.305 401.466 227.132 398.821 222.785L399.104 223.069L345.533 133.216Z" fill="black"/>
<path d="M219.907 214.57C219.907 223.64 214.238 228.175 202.9 228.175C191.751 228.175 186.177 223.64 186.177 214.57V13.6055C186.177 4.53516 191.751 0 202.9 0C214.238 0 219.907 4.53516 219.907 13.6055V214.57Z" fill="black"/>
<path d="M65.2738 29.1951L3.1988 219.672V219.388C2.06501 222.223 0.458809 224.585 -1.61981 226.475C-3.50946 228.175 -5.87152 229.026 -8.706 229.026C-10.2177 229.026 -11.7294 228.837 -13.2412 228.459C-14.5639 228.27 -15.9812 227.986 -17.4929 227.608H-17.2094C-27.9804 224.207 -31.9487 218.16 -29.1142 209.468L35.5118 13.0386C36.4566 10.0151 38.0629 7.46411 40.3304 5.3855C42.787 3.30689 45.6215 2.07862 48.8339 1.70068C52.0463 1.13378 55.1642 0.75585 58.1876 0.566888C61.2111 0.188963 63.5731 0 65.2738 0C66.9745 0 69.3366 0.188963 72.36 0.566888C75.3835 0.75585 78.5014 1.0393 81.7138 1.41724C84.3593 1.79516 86.9103 3.2124 89.3669 5.66895C92.0124 8.12549 93.9965 10.582 95.3193 13.0386C105.901 45.5406 116.578 78.326 127.349 111.395C138.309 144.275 149.08 176.966 159.662 209.468C162.307 218.16 158.339 224.207 147.757 227.608C146.245 227.986 144.828 228.27 143.505 228.459C142.372 228.837 141.049 229.026 139.537 229.026C136.892 229.026 134.435 228.175 132.167 226.475C130.089 224.585 128.577 222.223 127.632 219.388V219.672L65.2738 29.1951ZM86.5324 158.447C86.5324 164.494 84.3593 169.691 80.0131 174.037C75.8559 178.194 70.7538 180.273 64.7069 180.273C58.66 180.273 53.558 178.194 49.4008 174.037C45.2435 169.691 43.1649 164.494 43.1649 158.447C43.1649 152.4 45.2435 147.298 49.4008 143.141C53.558 138.795 58.66 136.622 64.7069 136.622C70.7538 136.622 75.8559 138.795 80.0131 143.141C84.3593 147.298 86.5324 152.4 86.5324 158.447Z" fill="black"/>
</g>
</svg>
